<svg width="39" height="30" viewBox="0 0 39 30" fill="none" xmlns="http://www.w3.org/2000/svg">
<path d="M1.80473 0.38623C0.808006 0.38623 0 1.19424 0 2.19096V7.10349C0 8.10021 0.808006 8.90822 1.80473 8.90822H8.52199V21.4458C8.52199 26.1523 12.3374 29.9678 17.044 29.9678V8.90822H26.6042C28.3841 8.90822 29.827 10.3511 29.827 12.1309V13.6219C26.9863 13.6219 24.1456 13.62 21.305 13.62V22.128C25.6347 22.128 29.1447 25.638 29.1447 29.9677H37.6527C37.6527 26.124 36.3261 22.59 34.1058 19.7988C36.6224 17.8062 38.2368 14.7242 38.2368 11.265C38.2368 5.25684 33.3662 0.38623 27.358 0.38623H1.80473Z" fill="url(#paint0_linear_2037_1089)"/>
<defs>
<linearGradient id="paint0_linear_2037_1089" x1="19.1184" y1="0.38623" x2="19.1184" y2="29.9678" gradientUnits="userSpaceOnUse">
<stop stop-color="#01FA9E"/>
<stop offset="1" stop-color="#3965FC"/>
</linearGradient>
</defs>
</svg>
